<svg width="463" height="316" viewBox="0 0 463 316" fill="none" xmlns="http://www.w3.org/2000/svg">
<path d="M110.598 59.6244C110.598 49.6624 117.421 41.298 126.58 40.3856C145.596 38.4914 180.273 35.792 223.465 35.792C271.332 35.792 329.658 39.1074 358.621 40.968C368.83 41.6238 376.748 50.7973 376.748 61.874C376.748 71.6222 370.576 80.0709 361.71 81.7486C348.95 84.1634 329.663 87.0409 310.21 87.0409C283.356 87.0409 171.38 81.557 127.934 79.3774C118.189 78.8885 110.598 70.1905 110.598 59.6244Z" fill="#1E1E1E"/>
<path d="M0.281177 154.066C2.2244 136.626 15.4307 123.249 31.6316 122.447C85.6743 119.77 205.106 114.267 273.735 114.267C316.701 114.267 351.038 112.23 375.278 110.086C397.061 108.159 416.667 126.642 416.667 150.315C416.667 170.359 402.463 187.032 383.993 188.262C362.951 189.662 335.466 191.14 313.164 191.14C270.778 191.14 214.587 185.802 96.3015 185.802C61.9085 185.802 39.0991 185.802 24.0448 185.802C7.2026 185.802 -1.73686 172.177 0.281177 154.066Z" fill="#1E1E1E"/>
<path d="M20.4027 274.182C20.4027 250.926 32.0619 238.334 53.5 237.051C128.41 232.565 296.211 216.962 336.825 221.035C366.391 224 402.04 227.295 427.892 229.638C447.732 231.437 463 249.389 463 270.953C463 294.218 445.395 312.931 423.92 312.488C357.091 311.11 221.758 309.066 156.435 313.39C112.944 316.269 79.4021 316.325 56.5068 315.634C35.8886 315.012 20.4027 296.523 20.4027 274.182Z" fill="#1E1E1E"/>
<path d="M44.0606 237.051C111.091 199.682 84.615 191.14 58 185.802C187.46 167.295 440.291 135.355 407.959 175.5C375.627 215.645 381 220.406 407.959 227.819L91.3748 248.795C57.5311 267.658 -8.00066 266.074 44.0606 237.051Z" fill="#1E1E1E"/>
<path d="M213.301 117.965C252.92 107.698 255 83.1724 206.5 83.1724C214.119 73.1906 267.832 42.4135 345.5 48C425.164 53.7301 326.319 127.947 287.588 141.494C246.317 137.929 173.681 128.232 213.301 117.965Z" fill="#1E1E1E"/>
<rect x="87" y="75" width="320" height="188.75" rx="30" fill="#1E1E1E" stroke="#737373" stroke-width="20"/>
<path d="M210 119L210 169" stroke="#A3A3A3" stroke-width="20" stroke-linecap="round"/>
<path d="M285 119L285 169" stroke="#A3A3A3" stroke-width="20" stroke-linecap="round"/>
<path d="M262.218 213.129C264.909 214.626 264.97 218.475 262.328 220.057L248.211 228.509C245.569 230.091 242.205 228.219 242.156 225.14L241.895 208.688C241.847 205.609 245.149 203.632 247.84 205.129L262.218 213.129Z" fill="#737373"/>
<path d="M312.6 125C310.8 125 309.333 124.567 308.2 123.7C307.067 122.767 306.3 121.6 305.9 120.2C305.5 118.8 305.5 117.3 305.9 115.7C306.367 114.033 307.233 112.5 308.5 111.1L331.7 84.9V88.9H311.9C309.767 88.9 308.133 88.3333 307 87.2C305.867 86.0667 305.3 84.4333 305.3 82.3C305.3 80.1667 305.867 78.5667 307 77.5C308.133 76.3667 309.767 75.8 311.9 75.8H340.2C342.2 75.8 343.833 76.2667 345.1 77.2C346.367 78.0667 347.2 79.2 347.6 80.6C348.067 82 348.1 83.5 347.7 85.1C347.3 86.7 346.467 88.2 345.2 89.6L321.4 116.5V111.9H342.7C347.167 111.9 349.4 114.067 349.4 118.4C349.4 120.533 348.833 122.167 347.7 123.3C346.567 124.433 344.9 125 342.7 125H312.6Z" fill="#525252"/>
<path d="M361.6 101C359.8 101 358.333 100.567 357.2 99.7C356.067 98.7667 355.3 97.6 354.9 96.2C354.5 94.8 354.5 93.3 354.9 91.7C355.367 90.0333 356.233 88.5 357.5 87.1L380.7 60.9V64.9H360.9C358.767 64.9 357.133 64.3333 356 63.2C354.867 62.0667 354.3 60.4333 354.3 58.3C354.3 56.1667 354.867 54.5667 356 53.5C357.133 52.3667 358.767 51.8 360.9 51.8H389.2C391.2 51.8 392.833 52.2667 394.1 53.2C395.367 54.0667 396.2 55.2 396.6 56.6C397.067 58 397.1 59.5 396.7 61.1C396.3 62.7 395.467 64.2 394.2 65.6L370.4 92.5V87.9H391.7C396.167 87.9 398.4 90.0667 398.4 94.4C398.4 96.5333 397.833 98.1667 396.7 99.3C395.567 100.433 393.9 101 391.7 101H361.6Z" fill="#525252"/>
<path d="M407.42 108C406.16 108 405.133 107.697 404.34 107.09C403.547 106.437 403.01 105.62 402.73 104.64C402.45 103.66 402.45 102.61 402.73 101.49C403.057 100.323 403.663 99.25 404.55 98.27L420.79 79.93V82.73H406.93C405.437 82.73 404.293 82.3333 403.5 81.54C402.707 80.7467 402.31 79.6033 402.31 78.11C402.31 76.6167 402.707 75.4967 403.5 74.75C404.293 73.9567 405.437 73.56 406.93 73.56H426.74C428.14 73.56 429.283 73.8867 430.17 74.54C431.057 75.1467 431.64 75.94 431.92 76.92C432.247 77.9 432.27 78.95 431.99 80.07C431.71 81.19 431.127 82.24 430.24 83.22L413.58 102.05V98.83H428.49C431.617 98.83 433.18 100.347 433.18 103.38C433.18 104.873 432.783 106.017 431.99 106.81C431.197 107.603 430.03 108 428.49 108H407.42Z" fill="#525252"/>
</svg>
