<svg width="463" height="303" viewBox="0 0 463 303" fill="none" xmlns="http://www.w3.org/2000/svg">
<path d="M110.598 46.6244C110.598 36.6624 117.421 28.298 126.58 27.3856C145.596 25.4914 180.273 22.792 223.465 22.792C271.332 22.792 329.658 26.1074 358.621 27.968C368.83 28.6238 376.748 37.7973 376.748 48.874C376.748 58.6222 370.576 67.0709 361.71 68.7486C348.95 71.1634 329.663 74.0409 310.21 74.0409C283.356 74.0409 171.38 68.557 127.934 66.3774C118.189 65.8885 110.598 57.1905 110.598 46.6244Z" fill="#1E1E1E"/>
<path d="M0.281177 141.066C2.2244 123.626 15.4307 110.249 31.6316 109.447C85.6743 106.77 205.106 101.267 273.735 101.267C316.701 101.267 351.038 99.2296 375.278 97.0857C397.061 95.159 416.667 113.642 416.667 137.315C416.667 157.359 402.463 174.032 383.993 175.262C362.951 176.662 335.466 178.14 313.164 178.14C270.778 178.14 214.587 172.802 96.3015 172.802C61.9085 172.802 39.0991 172.802 24.0448 172.802C7.2026 172.802 -1.73686 159.177 0.281177 141.066Z" fill="#1E1E1E"/>
<path d="M20.4027 261.182C20.4027 237.926 32.0619 225.334 53.5 224.051C128.41 219.565 296.211 203.962 336.825 208.035C366.391 211 402.04 214.295 427.892 216.638C447.732 218.437 463 236.389 463 257.953C463 281.218 445.395 299.931 423.92 299.488C357.091 298.11 221.758 296.066 156.435 300.39C112.944 303.269 79.4021 303.325 56.5068 302.634C35.8886 302.012 20.4027 283.523 20.4027 261.182Z" fill="#1E1E1E"/>
<path d="M44.0606 224.051C111.091 186.682 84.615 178.14 58 172.802C187.46 154.295 440.291 122.355 407.959 162.5C375.627 202.645 381 207.406 407.959 214.819L91.3748 235.795C57.5311 254.658 -8.00066 253.074 44.0606 224.051Z" fill="#1E1E1E"/>
<path d="M213.301 104.965C252.92 94.6979 255 70.1724 206.5 70.1724C214.119 60.1906 267.832 29.4135 345.5 35C425.164 40.7301 326.319 114.947 287.588 128.494C246.317 124.929 173.681 115.232 213.301 104.965Z" fill="#1E1E1E"/>
<path d="M163.875 24V52.125M295.125 24V52.125M117 220.875V80.25C117 72.7908 119.963 65.6371 125.238 60.3626C130.512 55.0882 137.666 52.125 145.125 52.125H313.875C321.334 52.125 328.488 55.0882 333.762 60.3626C339.037 65.6371 342 72.7908 342 80.25V220.875M117 220.875C117 228.334 119.963 235.488 125.238 240.762C130.512 246.037 137.666 249 145.125 249H313.875C321.334 249 328.488 246.037 333.762 240.762C339.037 235.488 342 228.334 342 220.875M117 220.875V127.125C117 119.666 119.963 112.512 125.238 107.238C130.512 101.963 137.666 99 145.125 99H313.875C321.334 99 328.488 101.963 333.762 107.238C339.037 112.512 342 119.666 342 127.125V220.875" stroke="#737373" stroke-width="16" stroke-linecap="round" stroke-linejoin="round"/>
<path d="M148 50.9998C126.4 50.9998 116.333 76.3331 114 88.9998C114 99.3332 115.6 118.6 122 113C128.4 107.4 138.667 100.667 143 98C191.667 98.6667 293.8 100.6 313 103C332.2 105.4 335.667 110.667 335 113C337 118.667 340.8 121.8 340 88.9998C339.2 56.1998 321.667 49.9998 313 50.9998H148Z" fill="#737373"/>
<path d="M175.773 137.271C173.526 140.267 176.709 144.138 178.582 145.698C194.499 158.807 211.354 147.571 213.227 145.698C215.1 143.826 216.036 139.144 213.227 137.271C210.98 135.773 207.921 137.895 206.673 139.144C204.8 140.392 199.931 143.076 195.437 143.825C190.942 144.574 186.698 141.016 185.137 139.144C182.952 137.271 178.02 134.275 175.773 137.271Z" fill="#A3A3A3"/>
<path d="M237.773 137.271C235.526 140.267 238.709 144.138 240.582 145.698C256.499 158.807 273.354 147.571 275.227 145.698C277.1 143.826 278.036 139.144 275.227 137.271C272.98 135.773 269.921 137.895 268.673 139.144C266.8 140.392 261.931 143.076 257.437 143.825C252.942 144.574 248.698 141.016 247.137 139.144C244.952 137.271 240.02 134.275 237.773 137.271Z" fill="#A3A3A3"/>
<ellipse cx="226.5" cy="190" rx="7.5" ry="8" fill="#737373"/>
<path d="M288.6 125C286.8 125 285.333 124.567 284.2 123.7C283.067 122.767 282.3 121.6 281.9 120.2C281.5 118.8 281.5 117.3 281.9 115.7C282.367 114.033 283.233 112.5 284.5 111.1L307.7 84.9V88.9H287.9C285.767 88.9 284.133 88.3333 283 87.2C281.867 86.0667 281.3 84.4333 281.3 82.3C281.3 80.1667 281.867 78.5667 283 77.5C284.133 76.3667 285.767 75.8 287.9 75.8H316.2C318.2 75.8 319.833 76.2667 321.1 77.2C322.367 78.0667 323.2 79.2 323.6 80.6C324.067 82 324.1 83.5 323.7 85.1C323.3 86.7 322.467 88.2 321.2 89.6L297.4 116.5V111.9H318.7C323.167 111.9 325.4 114.067 325.4 118.4C325.4 120.533 324.833 122.167 323.7 123.3C322.567 124.433 320.9 125 318.7 125H288.6Z" fill="#525252"/>
<path d="M337.6 101C335.8 101 334.333 100.567 333.2 99.7C332.067 98.7667 331.3 97.6 330.9 96.2C330.5 94.8 330.5 93.3 330.9 91.7C331.367 90.0333 332.233 88.5 333.5 87.1L356.7 60.9V64.9H336.9C334.767 64.9 333.133 64.3333 332 63.2C330.867 62.0667 330.3 60.4333 330.3 58.3C330.3 56.1667 330.867 54.5667 332 53.5C333.133 52.3667 334.767 51.8 336.9 51.8H365.2C367.2 51.8 368.833 52.2667 370.1 53.2C371.367 54.0667 372.2 55.2 372.6 56.6C373.067 58 373.1 59.5 372.7 61.1C372.3 62.7 371.467 64.2 370.2 65.6L346.4 92.5V87.9H367.7C372.167 87.9 374.4 90.0667 374.4 94.4C374.4 96.5333 373.833 98.1667 372.7 99.3C371.567 100.433 369.9 101 367.7 101H337.6Z" fill="#525252"/>
<path d="M383.42 108C382.16 108 381.133 107.697 380.34 107.09C379.547 106.437 379.01 105.62 378.73 104.64C378.45 103.66 378.45 102.61 378.73 101.49C379.057 100.323 379.663 99.25 380.55 98.27L396.79 79.93V82.73H382.93C381.437 82.73 380.293 82.3333 379.5 81.54C378.707 80.7467 378.31 79.6033 378.31 78.11C378.31 76.6167 378.707 75.4967 379.5 74.75C380.293 73.9567 381.437 73.56 382.93 73.56H402.74C404.14 73.56 405.283 73.8867 406.17 74.54C407.057 75.1467 407.64 75.94 407.92 76.92C408.247 77.9 408.27 78.95 407.99 80.07C407.71 81.19 407.127 82.24 406.24 83.22L389.58 102.05V98.83H404.49C407.617 98.83 409.18 100.347 409.18 103.38C409.18 104.873 408.783 106.017 407.99 106.81C407.197 107.603 406.03 108 404.49 108H383.42Z" fill="#525252"/>
</svg>
