<svg width="463" height="281" viewBox="0 0 463 281" fill="none" xmlns="http://www.w3.org/2000/svg">
<path d="M110.598 24.6244C110.598 14.6624 117.421 6.29796 126.58 5.38564C145.596 3.4914 180.273 0.791992 223.465 0.791992C271.332 0.791992 329.658 4.10741 358.621 5.96801C368.83 6.62381 376.748 15.7973 376.748 26.874C376.748 36.6222 370.576 45.0709 361.71 46.7486C348.95 49.1634 329.663 52.0409 310.21 52.0409C283.356 52.0409 171.38 46.557 127.934 44.3774C118.189 43.8885 110.598 35.1905 110.598 24.6244Z" fill="#1E1E1E"/>
<path d="M0.281177 119.066C2.2244 101.626 15.4307 88.2494 31.6316 87.4468C85.6743 84.7697 205.106 79.2667 273.735 79.2667C316.701 79.2667 351.038 77.2296 375.278 75.0857C397.061 73.159 416.667 91.6423 416.667 115.315C416.667 135.359 402.463 152.032 383.993 153.262C362.951 154.662 335.466 156.14 313.164 156.14C270.778 156.14 214.587 150.802 96.3015 150.802C61.9085 150.802 39.0991 150.802 24.0448 150.802C7.2026 150.802 -1.73686 137.177 0.281177 119.066Z" fill="#1E1E1E"/>
<path d="M20.4027 239.182C20.4027 215.926 32.0619 203.334 53.5 202.051C128.41 197.565 296.211 181.962 336.825 186.035C366.391 189 402.04 192.295 427.892 194.638C447.732 196.437 463 214.389 463 235.953C463 259.218 445.395 277.931 423.92 277.488C357.091 276.11 221.758 274.066 156.435 278.39C112.944 281.269 79.4021 281.325 56.5068 280.634C35.8886 280.012 20.4027 261.523 20.4027 239.182Z" fill="#1E1E1E"/>
<path d="M44.0606 202.051C111.091 164.682 84.615 156.14 58 150.802C187.46 132.295 440.291 100.355 407.959 140.5C375.627 180.645 381 185.406 407.959 192.819L91.3748 213.795C57.5311 232.658 -8.00066 231.074 44.0606 202.051Z" fill="#1E1E1E"/>
<path d="M213.301 82.965C252.92 72.6979 255 48.1724 206.5 48.1724C214.119 38.1906 267.832 7.41347 345.5 13C425.164 18.7301 326.319 92.9468 287.588 106.494C246.317 102.929 173.681 93.232 213.301 82.965Z" fill="#1E1E1E"/>
<path d="M202.75 172.5L234 172.5V197.5C234 211.289 222.789 222.5 209 222.5H205.875C200.68 222.5 196.5 226.68 196.5 231.875V250.625C196.5 255.82 200.68 260 205.875 260H209C243.531 260 271.5 232.031 271.5 197.5V103.75C271.5 93.3984 263.102 85 252.75 85H202.75C192.398 85 184 93.3984 184 103.75L184 153.75C184 164.102 192.398 172.5 202.75 172.5ZM315.25 172.5H346.5V197.5C346.5 211.289 335.289 222.5 321.5 222.5H318.375C313.18 222.5 309 226.68 309 231.875V250.625C309 255.82 313.18 260 318.375 260H321.5C356.031 260 384 232.031 384 197.5V103.75C384 93.3984 375.602 85 365.25 85H315.25C304.898 85 296.5 93.3984 296.5 103.75V153.75C296.5 164.102 304.898 172.5 315.25 172.5Z" fill="#737373"/>
<path d="M143.625 82.75H128V70.25C128 63.3555 133.605 57.75 140.5 57.75H142.062C144.66 57.75 146.75 55.6602 146.75 53.0625V43.6875C146.75 41.0898 144.66 39 142.062 39H140.5C123.234 39 109.25 52.9844 109.25 70.25V117.125C109.25 122.301 113.449 126.5 118.625 126.5H143.625C148.801 126.5 153 122.301 153 117.125V92.125C153 86.9492 148.801 82.75 143.625 82.75ZM87.375 82.75H71.75V70.25C71.75 63.3555 77.3555 57.75 84.25 57.75H85.8125C88.4102 57.75 90.5 55.6602 90.5 53.0625V43.6875C90.5 41.0898 88.4102 39 85.8125 39H84.25C66.9844 39 53 52.9844 53 70.25V117.125C53 122.301 57.1992 126.5 62.375 126.5H87.375C92.5508 126.5 96.75 122.301 96.75 117.125V92.125C96.75 86.9492 92.5508 82.75 87.375 82.75Z" fill="#525252"/>
<path d="M213.773 130.271C211.526 133.267 214.709 137.138 216.582 138.698C232.499 151.807 249.354 140.571 251.227 138.698C253.1 136.826 254.036 132.144 251.227 130.271C248.98 128.773 245.921 130.895 244.673 132.144C242.8 133.392 237.931 136.076 233.437 136.825C228.942 137.574 224.698 134.016 223.137 132.144C220.952 130.271 216.02 127.275 213.773 130.271Z" fill="#A3A3A3"/>
<path d="M312.773 130.271C310.526 133.267 313.709 137.138 315.582 138.698C331.499 151.807 348.354 140.571 350.227 138.698C352.1 136.826 353.036 132.144 350.227 130.271C347.98 128.773 344.921 130.895 343.673 132.144C341.8 133.392 336.931 136.076 332.437 136.825C327.942 137.574 323.698 134.016 322.137 132.144C319.952 130.271 315.02 127.275 312.773 130.271Z" fill="#A3A3A3"/>
<ellipse cx="327.5" cy="240" rx="7.5" ry="8" fill="#A3A3A3"/>
<path d="M340.6 126C338.8 126 337.333 125.567 336.2 124.7C335.067 123.767 334.3 122.6 333.9 121.2C333.5 119.8 333.5 118.3 333.9 116.7C334.367 115.033 335.233 113.5 336.5 112.1L359.7 85.9V89.9H339.9C337.767 89.9 336.133 89.3333 335 88.2C333.867 87.0667 333.3 85.4333 333.3 83.3C333.3 81.1667 333.867 79.5667 335 78.5C336.133 77.3667 337.767 76.8 339.9 76.8H368.2C370.2 76.8 371.833 77.2667 373.1 78.2C374.367 79.0667 375.2 80.2 375.6 81.6C376.067 83 376.1 84.5 375.7 86.1C375.3 87.7 374.467 89.2 373.2 90.6L349.4 117.5V112.9H370.7C375.167 112.9 377.4 115.067 377.4 119.4C377.4 121.533 376.833 123.167 375.7 124.3C374.567 125.433 372.9 126 370.7 126H340.6Z" fill="#525252"/>
<path d="M389.6 102C387.8 102 386.333 101.567 385.2 100.7C384.067 99.7667 383.3 98.6 382.9 97.2C382.5 95.8 382.5 94.3 382.9 92.7C383.367 91.0333 384.233 89.5 385.5 88.1L408.7 61.9V65.9H388.9C386.767 65.9 385.133 65.3333 384 64.2C382.867 63.0667 382.3 61.4333 382.3 59.3C382.3 57.1667 382.867 55.5667 384 54.5C385.133 53.3667 386.767 52.8 388.9 52.8H417.2C419.2 52.8 420.833 53.2667 422.1 54.2C423.367 55.0667 424.2 56.2 424.6 57.6C425.067 59 425.1 60.5 424.7 62.1C424.3 63.7 423.467 65.2 422.2 66.6L398.4 93.5V88.9H419.7C424.167 88.9 426.4 91.0667 426.4 95.4C426.4 97.5333 425.833 99.1667 424.7 100.3C423.567 101.433 421.9 102 419.7 102H389.6Z" fill="#525252"/>
<path d="M435.42 109C434.16 109 433.133 108.697 432.34 108.09C431.547 107.437 431.01 106.62 430.73 105.64C430.45 104.66 430.45 103.61 430.73 102.49C431.057 101.323 431.663 100.25 432.55 99.27L448.79 80.93V83.73H434.93C433.437 83.73 432.293 83.3333 431.5 82.54C430.707 81.7467 430.31 80.6033 430.31 79.11C430.31 77.6167 430.707 76.4967 431.5 75.75C432.293 74.9567 433.437 74.56 434.93 74.56H454.74C456.14 74.56 457.283 74.8867 458.17 75.54C459.057 76.1467 459.64 76.94 459.92 77.92C460.247 78.9 460.27 79.95 459.99 81.07C459.71 82.19 459.127 83.24 458.24 84.22L441.58 103.05V99.83H456.49C459.617 99.83 461.18 101.347 461.18 104.38C461.18 105.873 460.783 107.017 459.99 107.81C459.197 108.603 458.03 109 456.49 109H435.42Z" fill="#525252"/>
</svg>
