<svg width="464" height="391" viewBox="0 0 464 391" fill="none" xmlns="http://www.w3.org/2000/svg">
<path d="M110.598 133.832C110.598 123.87 117.421 115.506 126.58 114.594C145.596 112.699 180.273 110 223.465 110C271.332 110 329.658 113.315 358.621 115.176C368.83 115.832 376.748 125.005 376.748 136.082C376.748 145.83 370.576 154.279 361.71 155.957C348.95 158.371 329.663 161.249 310.21 161.249C283.356 161.249 171.38 155.765 127.934 153.585C118.189 153.096 110.598 144.399 110.598 133.832Z" fill="#1E1E1E"/>
<path d="M0.281177 228.274C2.2244 210.834 15.4307 197.457 31.6316 196.655C85.6743 193.978 205.106 188.475 273.735 188.475C316.701 188.475 351.038 186.438 375.278 184.294C397.061 182.367 416.667 200.85 416.667 224.523C416.667 244.567 402.463 261.24 383.993 262.47C362.951 263.87 335.466 265.348 313.164 265.348C270.778 265.348 214.587 260.01 96.3015 260.01C61.9085 260.01 39.0991 260.01 24.0448 260.01C7.2026 260.01 -1.73686 246.385 0.281177 228.274Z" fill="#1E1E1E"/>
<path d="M20.4027 348.39C20.4027 325.134 32.0619 312.542 53.5 311.259C128.41 306.773 296.211 291.17 336.825 295.243C366.391 298.208 402.04 301.503 427.892 303.846C447.732 305.645 463 323.597 463 345.161C463 368.426 445.395 387.139 423.92 386.696C357.091 385.318 221.758 383.274 156.435 387.598C112.944 390.477 79.4021 390.533 56.5068 389.842C35.8886 389.22 20.4027 370.731 20.4027 348.39Z" fill="#1E1E1E"/>
<path d="M44.0606 311.259C111.091 273.89 84.615 265.348 58 260.01C187.46 241.503 440.291 209.563 407.959 249.708C375.627 289.853 381 294.614 407.959 302.027L91.3748 323.003C57.5311 341.866 -8.00066 340.282 44.0606 311.259Z" fill="#1E1E1E"/>
<path d="M213.301 192.173C252.92 181.906 255 157.38 206.5 157.38C214.119 147.399 267.832 116.621 345.5 122.208C425.164 127.938 326.319 202.155 287.588 215.702C246.317 212.137 173.681 202.44 213.301 192.173Z" fill="#1E1E1E"/>
<path d="M86.4766 153.442H383.854C391.034 153.442 396.854 159.262 396.854 166.442V340.206C396.854 347.386 391.034 353.206 383.854 353.206H99.4766C92.2969 353.206 86.4766 347.386 86.4766 340.206V153.442Z" fill="#737373"/>
<path d="M119.765 186.823C121.052 180.833 126.347 176.555 132.474 176.555H417.909C426.188 176.555 432.358 184.192 430.618 192.287L398.235 342.938C396.948 348.928 391.653 353.206 385.526 353.206H100.091C91.8116 353.206 85.6416 345.569 87.3816 337.474L119.765 186.823Z" fill="#525252"/>
<path d="M86.4766 138.426C86.4766 131.556 91.8003 125.88 98.6612 125.534C121.67 124.376 170.077 122.455 179.755 126.201C192.55 131.154 204.519 153.442 204.519 153.442H86.4766V138.426Z" fill="#737373"/>
<ellipse cx="65.5" cy="36.75" rx="7.5" ry="3.75" fill="#404040"/>
<ellipse cx="67" cy="29.25" rx="12" ry="5.25" fill="#404040"/>
<path d="M463 49.5424C344.865 68.1953 277.991 59.6287 245.383 44.7064C204.623 26.0536 214.295 4.63733 224.658 1.87395C235.021 -0.889439 269.563 2.56479 290.288 17.0726C311.014 31.5803 325.522 66.1227 300.651 73.0312C275.781 79.9396 203.242 70.9586 158.337 59.9051C122.413 51.0623 118 30 63 35.7255" stroke="#737373" stroke-width="2" stroke-dasharray="8 8"/>
</svg>
